<?xml version="1.0" encoding="UTF-8" standalone="no"?>
<!-- Created with Inkscape (http://www.inkscape.org/) -->

<svg
   width="32"
   height="32"
   viewBox="0 0 8.4666667 8.4666667"
   version="1.1"
   xmlns="http://www.w3.org/2000/svg"
   xmlns:svg="http://www.w3.org/2000/svg">
  <g>
    <rect
       style="fill:#1a1a1a"
       width="9"
       height="9"
       x="-1"
       y="-1" />
    <g
       transform="translate(0.26579361,0.04635358)">
      <path
         style="fill:none;fill-opacity:1;stroke:#5aa02c;stroke-width:0.265;stroke-linecap:round;stroke-linejoin:miter;stroke-miterlimit:4;stroke-dasharray:none;stroke-dashoffset:0;stroke-opacity:1;-inkscape-stroke:none;stop-color:#000000;stop-opacity:1"
         d="M 4.095825,2.9864476 A 1.4031168,1.4031168 0 0 1 5.3566705,3.428875 1.4031168,1.4031168 0 0 1 5.675275,4.7265515" />
      <path
         style="fill:none;stroke:#5aa02c;stroke-width:0.265;stroke-linecap:round;stroke-miterlimit:4;stroke-dasharray:none"
         d="M 4.9174662,5.6403865 A 1.4031168,1.4031168 0 0 1 3.4370079,5.4641943 1.4031168,1.4031168 0 0 1 2.9509129,4.0547575" />
      <path
         style="fill:none;stroke:#5aa02c;stroke-width:0.264583px;stroke-linecap:round;stroke-linejoin:miter;stroke-opacity:1"
         d="M 5.6752747,4.7265515 7.4068668,6.4581438" />
      <path
         style="fill:none;stroke:#5aa02c;stroke-width:0.264583px;stroke-linecap:round;stroke-linejoin:miter;stroke-opacity:1"
         d="M 4.917466,5.6403867 6.6490582,7.371979" />
      <path
         style="fill:none;stroke:#5aa02c;stroke-width:0.265;stroke-linecap:round;stroke-linejoin:round;stroke-miterlimit:4;stroke-dasharray:none;stroke-opacity:1"
         d="M 4.0958251,2.9864476 4.7843207,3.6749431 4.5690165,4.5582769 3.7810199,4.7703996 2.950913,4.0547575" />
    </g>
    <path
       style="fill:none;stroke:#5aa02c;stroke-width:0.264583px;stroke-linecap:round;stroke-linejoin:round;stroke-opacity:1"
       d="M 1.81435,1.4352711 H 1.466303 v 1.8566464 h 0.3489162" />
    <path
       style="fill:none;stroke:#5aa02c;stroke-width:0.265;stroke-linecap:round;stroke-linejoin:round;stroke-opacity:1;stroke-miterlimit:4;stroke-dasharray:none"
       d="m 3.0281061,1.4352711 h 0.348047 V 3.2919175 H 3.0272369" />
  </g>
</svg>
